<svg width="140" height="41" fill="none" xmlns="http://www.w3.org/2000/svg"><path d="M0 18.245c.44-.02.803-.076 1.09-.172.306-.096.535-.316.688-.66.173-.344.259-.899.259-1.664V4.763c0-.516.01-1.014.028-1.492.039-.478.067-.841.086-1.09-.306.02-.688.038-1.147.058-.459 0-.794.01-1.004.028V.06A289.23 289.23 0 014.073.03C5.431.03 6.79.02 8.147.002c1.682-.019 3.145.2 4.389.66 1.262.459 2.227 1.166 2.897 2.123.688.956 1.013 2.199.975 3.729-.02 1.013-.335 1.998-.947 2.954-.593.957-1.491 1.75-2.696 2.381-1.186.631-2.687.975-4.504 1.033-.784.019-1.472.019-2.065 0v2.524c0 .536-.01 1.042-.029 1.52-.019.479-.047.842-.086 1.09.21-.019.478-.028.803-.028.326-.02.641-.029.947-.029.325-.019.555-.029.689-.029v2.21H0v-1.894zm6.196-7.516c.402.058.832.087 1.29.087 1.588 0 2.726-.393 3.414-1.177.708-.803 1.062-1.931 1.062-3.384 0-.957-.134-1.722-.402-2.295-.248-.574-.574-.995-.975-1.262a3.062 3.062 0 00-1.262-.545 5.711 5.711 0 00-1.205-.144c-.593 0-1.061.124-1.406.373-.344.249-.516.88-.516 1.893v6.454zm18.894 9.868c-1.377 0-2.62-.296-3.729-.89a6.697 6.697 0 01-2.64-2.523c-.63-1.11-.946-2.41-.946-3.902 0-1.587.325-2.973.976-4.159.669-1.205 1.549-2.132 2.639-2.782a6.87 6.87 0 013.614-1.004c1.377 0 2.61.296 3.7.889a6.5 6.5 0 012.582 2.553c.631 1.09.947 2.4.947 3.93 0 1.606-.306 3.002-.918 4.188-.612 1.185-1.454 2.103-2.525 2.754-1.07.63-2.304.946-3.7.946zm.115-2.037c.765-.019 1.338-.286 1.72-.803.402-.516.68-1.166.833-1.95.153-.784.23-1.578.23-2.381 0-.708-.058-1.425-.173-2.152a8.568 8.568 0 00-.488-1.979c-.229-.593-.545-1.07-.946-1.434-.383-.363-.86-.536-1.434-.516-.746.019-1.339.286-1.779.803-.42.516-.727 1.166-.918 1.95a10.95 10.95 0 00-.258 2.41c0 .975.105 1.931.316 2.868.21.938.545 1.712 1.004 2.324.478.593 1.109.88 1.893.86zm8.732 1.578v-1.864c.612-.039 1.071-.163 1.377-.373.306-.21.497-.612.574-1.205l.975-7.487c.038-.268.067-.507.086-.717.02-.23.057-.43.115-.602l-2.266.086v-2.18h5.593l3.299 7.86c.153.363.325.764.516 1.204.192.44.354.851.488 1.234.115-.326.23-.641.344-.947.115-.306.23-.622.345-.947l3.04-8.404h5.68v1.606c-.593.02-1.033.153-1.32.402-.287.248-.382.63-.287 1.147l1.291 7.4a5.57 5.57 0 01.086 1.693l1.578-.086v2.18h-6.827v-1.864c.612 0 1.061-.105 1.348-.316.287-.21.373-.621.258-1.233l-1.233-6.741-3.844 10.154h-2.266l-3.156-7.515c-.19-.46-.363-.88-.516-1.262a48.564 48.564 0 00-.43-1.234c0 .478-.02.947-.057 1.406-.039.459-.106.985-.201 1.577l-.574 3.672c-.02.23-.057.44-.115.631a8.977 8.977 0 01-.143.602l1.893-.057v2.18h-5.651zm31.29 0a22.198 22.198 0 01-.086-.66c0-.19-.01-.41-.029-.66-.65.65-1.338 1.11-2.065 1.378a6.346 6.346 0 01-2.209.401c-1.224 0-2.18-.363-2.868-1.09-.689-.727-1.033-1.635-1.033-2.725 0-.918.23-1.702.689-2.352a5.37 5.37 0 011.864-1.578c.784-.42 1.645-.736 2.582-.947a14.813 14.813 0 012.868-.401v-1.492c0-.746-.153-1.377-.459-1.893-.287-.516-.822-.755-1.606-.717-.803.038-1.453.306-1.95.803.152.172.248.363.286.574.038.191.058.363.058.516 0 .383-.154.784-.46 1.205-.305.402-.793.593-1.462.574-.574-.02-1.014-.22-1.32-.603a2.094 2.094 0 01-.459-1.348c0-.765.268-1.425.803-1.98.555-.573 1.291-1.013 2.21-1.319.917-.325 1.93-.487 3.04-.487 1.683 0 2.983.44 3.9 1.32.938.86 1.406 2.246 1.406 4.159v1.663c0 .46-.01.918-.028 1.377v1.664a32.484 32.484 0 01-.115 2.524c.325-.038.67-.057 1.033-.057.363-.02.64-.029.832-.029v2.18h-5.422zm-.315-6.597c-1.071.095-1.999.373-2.783.832-.765.458-1.138 1.1-1.119 1.921.02.536.192.918.517 1.148.325.23.698.344 1.118.344.44 0 .851-.096 1.234-.287.382-.191.727-.44 1.033-.746v-3.212zm14.956-5.88c-.803 0-1.29.238-1.463.716-.172.46-.258 1.071-.258 1.836v1.492h5.049v-1.291a34.686 34.686 0 01.114-2.524l-1.864.086v-2.18h7.544V7.66c-.803 0-1.29.24-1.463.717-.172.46-.258 1.071-.258 1.836v5.307c0 .268-.01.65-.029 1.147 0 .478-.019.937-.057 1.377l1.864-.086v2.18h-7.572v-1.864c.803 0 1.29-.23 1.462-.689.173-.478.259-1.1.259-1.864v-1.807l-5.049.057v1.549c0 .268-.01.65-.029 1.147-.019.478-.047.937-.086 1.377l1.865-.086v2.18h-7.544v-1.864c.803 0 1.29-.23 1.463-.689.172-.478.258-1.1.258-1.864v-5.307c0-.268.01-.65.028-1.148.02-.497.039-.956.058-1.376l-1.836.086v-2.18h7.544V7.66zM98.63 20.137v-1.864c.803 0 1.29-.23 1.463-.689.172-.478.258-1.1.258-1.864v-.918c-.937.344-1.95.516-3.04.516-1.53 0-2.735-.382-3.615-1.147-.88-.765-1.358-1.779-1.434-3.041 0-.746.01-1.339.029-1.778.019-.46.038-.947.057-1.463l-1.836.086v-2.18h7.172V7.66c-.46.02-.804.134-1.033.344-.23.192-.344.622-.344 1.291.038 1.243.22 2.113.545 2.61.325.498.946.746 1.864.746.325 0 .622-.019.89-.057.267-.038.516-.096.745-.172v-2.008c0-.268.01-.65.029-1.148.019-.497.048-.956.086-1.376l-1.176.086v-2.18h6.827V7.66c-.784 0-1.262.24-1.434.717-.172.46-.258 1.071-.258 1.836v5.307a32.53 32.53 0 01-.115 2.524l1.864-.086v2.18H98.63zm12.732 7.774c-.726 0-1.348-.22-1.864-.66-.497-.42-.746-.985-.746-1.692 0-.517.163-.976.488-1.377.344-.383.784-.583 1.319-.603a1.35 1.35 0 011.062.402c.305.306.458.717.458 1.233v.173a.845.845 0 01-.028.2.47.47 0 00.143-.028c.344-.115.727-.612 1.148-1.492.439-.899.822-1.96 1.147-3.184l-4.532-9.093c-.536-1.071-.889-1.874-1.062-2.41a11.314 11.314 0 01-.315-1.463l-1.32.058v-2.18h7.143V7.63c-.708.077-1.1.345-1.176.804-.057.459.029.937.258 1.434l2.811 6.425c.191-.497.44-1.262.746-2.294a74.71 74.71 0 011.09-3.414c.115-.363.277-.822.488-1.377.229-.574.468-1.013.717-1.32l-1.635.087v-2.18h5.106V7.63c-.593.134-1.09.498-1.492 1.09-.382.593-.727 1.32-1.033 2.18l-3.585 10.241c-.536 1.55-1.042 2.82-1.521 3.815-.478 1.014-1.013 1.76-1.606 2.238-.593.478-1.329.717-2.209.717zm12.271-7.774v-1.864c.803 0 1.291-.23 1.463-.689.172-.478.258-1.1.258-1.864v-5.307c0-.268.01-.65.029-1.148.019-.497.048-.956.086-1.376-.306.019-.641.038-1.004.057-.363.02-.65.029-.86.029v-2.18h7.515V7.66c-.803 0-1.291.24-1.463.717-.153.46-.229 1.071-.229 1.836v1.348h1.377l2.065-2.38a12.6 12.6 0 00.602-.689c.172-.191.345-.363.517-.516h-1.521v-2.18h6.455V7.63c-1.014.115-1.846.412-2.496.89-.65.459-1.176.918-1.578 1.377l-1.836 2.036c.287.153.564.364.832.631.287.249.631.64 1.033 1.176l1.922 2.525c.153.19.363.45.631.774.268.306.574.593.918.86a1.83 1.83 0 001.09.374v1.864h-3.299c-.612 0-1.147-.21-1.606-.63-.459-.44-.985-1.062-1.578-1.865-.344-.46-.708-.947-1.09-1.463a89.413 89.413 0 00-1.033-1.492 27.056 27.056 0 00-.746-1.119l-.659.029v1.922a32.53 32.53 0 01-.115 2.524 8.119 8.119 0 011.004-.057c.363-.02.65-.029.86-.029v2.18h-7.544zM3.989 29.904c-.287 0-.488.067-.603.2-.114.135-.186.321-.215.56-.019.24-.033.516-.043.832v2.61l3.27-3.743.03-.344a64.4 64.4 0 01-.46.028c-.162 0-.31.005-.444.015v-.76h3.198v.602c-.277 0-.478.067-.602.2-.115.135-.187.321-.216.56-.019.24-.028.516-.028.832l-.015 3.198c0 .172-.004.35-.014.531a3.4 3.4 0 01-.043.53c.153-.009.31-.014.473-.014l.445-.028v.76H5.509v-.602c.287 0 .488-.068.603-.201.114-.134.186-.32.215-.56.028-.239.043-.516.043-.832v-2.796l-3.256 3.786c-.01.182-.024.344-.043.488a6.96 6.96 0 01.459-.015l.445-.028v.76H.776v-.602c.287 0 .488-.068.603-.201.114-.134.181-.32.2-.56.029-.239.048-.516.058-.832v-3.714c.01-.182.028-.364.057-.545l-.473.028c-.163 0-.311.005-.445.015v-.76H3.99v.602zm9.701 6.569v-.602c.278 0 .474-.068.588-.201.125-.134.197-.32.216-.56.028-.239.047-.516.057-.832v-3.714c.01-.182.024-.364.043-.545l-.903.043v-.76h7.787v.602c-.286 0-.487.067-.602.2-.115.135-.186.321-.215.56-.02.24-.029.516-.029.832l-.028 3.198c0 .172-.005.35-.015.531 0 .172-.014.35-.043.53l.918-.042v.76h-3.213v-.602c.278 0 .474-.068.588-.201.125-.134.197-.32.216-.56.028-.239.047-.516.057-.832V31.08a9.366 9.366 0 01.057-1.047l-2.251.029c-.287 0-.493.057-.617.172-.115.105-.187.267-.215.487-.02.21-.029.464-.029.76l-.014 3.213c0 .172-.005.35-.015.531 0 .172-.014.35-.043.53l.918-.042v.76h-3.212zm13.252 0a9.911 9.911 0 01-.044-.402 5.175 5.175 0 00-.043-.358c-.66.66-1.396.99-2.208.99-.689 0-1.21-.168-1.564-.503a1.734 1.734 0 01-.516-1.276c0-.44.129-.822.387-1.148a2.83 2.83 0 011.018-.788c.421-.21.88-.364 1.377-.46a7.063 7.063 0 011.463-.157v-.846a3.9 3.9 0 00-.086-.847 1.167 1.167 0 00-.358-.645c-.182-.172-.454-.258-.818-.258a1.726 1.726 0 00-.746.143c-.248.096-.44.258-.573.488a.505.505 0 01.143.272.95.95 0 01.043.273c0 .134-.057.287-.172.459-.115.163-.31.239-.588.23-.23 0-.406-.077-.53-.23a.946.946 0 01-.173-.56c0-.344.124-.65.373-.917.258-.268.602-.479 1.033-.631.44-.153.937-.23 1.491-.23.823 0 1.435.215 1.836.646.411.43.617 1.109.617 2.036 0 .526-.005 1.018-.014 1.477v1.463a13.537 13.537 0 01-.057 1.061l.501-.028a8.4 8.4 0 01.488-.014v.76h-2.28zm-.13-3.442a5.26 5.26 0 00-1.247.215 2.543 2.543 0 00-1.033.545c-.268.239-.397.554-.387.946.019.325.129.564.33.718.2.153.43.229.688.229.335 0 .631-.062.89-.186.257-.134.51-.316.76-.545a3.467 3.467 0 01-.015-.316v-.832c.01-.23.014-.487.014-.774zm3.207 7.1v-.603c.277 0 .473-.067.588-.201.124-.134.196-.32.215-.56a6.98 6.98 0 00.043-.831l.014-6.64a10.746 10.746 0 01.057-1.018 4.701 4.701 0 00-.516.027c-.181.01-.349.015-.502.015v-.76c.43 0 .77-.02 1.019-.058.248-.038.435-.086.559-.143.124-.067.22-.134.287-.2h.516c.01.095.02.21.029.343.019.134.029.268.029.402a3.377 3.377 0 011.018-.617 3.097 3.097 0 011.119-.215c.554 0 1.066.148 1.534.445.469.287.842.698 1.119 1.233.277.536.416 1.172.416 1.908 0 .793-.163 1.496-.488 2.108a3.68 3.68 0 01-1.32 1.434 3.412 3.412 0 01-1.82.502c-.307 0-.589-.038-.847-.114a3.232 3.232 0 01-.731-.287v2.05c0 .173-.005.345-.015.517 0 .182-.01.363-.028.545l.459-.029c.162 0 .31-.004.444-.014v.76H30.02zm3.815-4.175c.45 0 .822-.133 1.119-.401.306-.277.535-.645.688-1.105.153-.468.23-.994.23-1.577 0-.488-.067-.951-.201-1.391-.134-.45-.35-.813-.646-1.09-.287-.287-.664-.426-1.133-.416-.306 0-.593.071-.86.215-.268.143-.488.32-.66.53v.531c.01.191.014.45.014.775s-.005.765-.014 1.32v2.15c.191.144.411.259.66.345.258.086.526.124.803.114zm6.277.517v-.602c.277 0 .473-.068.588-.201.124-.134.196-.32.215-.56.029-.239.048-.516.057-.832v-3.686c.01-.162.024-.334.043-.516h-.789c-.401 0-.697.11-.889.33-.181.22-.272.621-.272 1.205h-.674l.057-2.31h6.54l.072 2.31h-.674c-.01-.584-.105-.985-.287-1.205-.182-.22-.492-.33-.932-.33h-.703v4.618c0 .172-.005.35-.014.531 0 .172-.015.35-.043.53l.918-.042v.76H40.11zm9.063-6.57c-.287 0-.487.068-.602.202-.115.134-.187.32-.215.56-.02.238-.034.515-.043.831v.932h3.17v-1.864a5.01 5.01 0 01.057-.545l-.918.043v-.76h3.213v.602c-.287 0-.488.067-.603.2-.115.135-.186.321-.215.56-.02.24-.029.516-.029.832l-.014 3.198c0 .172-.005.35-.014.531 0 .172-.015.35-.043.53l.918-.042v.76h-3.213v-.602c.287 0 .487-.068.602-.201.115-.134.182-.32.2-.56.03-.239.044-.516.044-.832l.014-1.104-3.17.029v1.491a10.056 10.056 0 01-.057 1.062l.904-.043v.76h-3.2v-.602c.278 0 .474-.068.588-.201.125-.134.196-.32.216-.56.028-.239.047-.516.057-.832v-3.714c.01-.182.024-.364.043-.545l-.904.043v-.76h3.213v.602zm9.348 6.8a3.58 3.58 0 01-1.808-.46 3.387 3.387 0 01-1.247-1.32c-.306-.573-.46-1.247-.46-2.022 0-.669.149-1.295.445-1.878a3.731 3.731 0 011.262-1.406c.545-.363 1.181-.545 1.908-.545.526 0 1.018.115 1.477.344.46.22.827.574 1.105 1.062.286.478.43 1.109.43 1.893l-4.934.086c0 .66.072 1.243.215 1.75.153.497.397.884.732 1.161.334.278.77.416 1.305.416.392 0 .808-.1 1.248-.3.44-.211.798-.493 1.075-.847l.445.387c-.297.43-.631.77-1.004 1.019a3.613 3.613 0 01-1.133.502 4.026 4.026 0 01-1.061.157zm-1.765-4.992h3.314c0-.535-.115-.99-.345-1.362-.23-.383-.588-.574-1.075-.574-.517 0-.937.162-1.263.488-.315.315-.525.798-.63 1.448zm2.97-3.944a.748.748 0 01-.574-.273.99.99 0 01-.23-.66c0-.248.081-.463.244-.645.163-.191.349-.287.56-.287a.67.67 0 01.559.287.97.97 0 01.23.646.955.955 0 01-.245.66c-.153.181-.334.272-.545.272zm-2.439 0c-.21 0-.397-.091-.56-.273a.99.99 0 01-.229-.66c0-.248.081-.463.244-.645.163-.191.35-.287.56-.287a.67.67 0 01.559.287.97.97 0 01.23.646.955.955 0 01-.245.66c-.162.181-.349.272-.559.272zM62.71 40.13v-.602c.277 0 .473-.067.588-.201.124-.134.196-.32.215-.56a6.98 6.98 0 00.043-.831l.014-6.64a9.363 9.363 0 01.057-1.019c-.162 0-.334.01-.516.028-.181.01-.349.015-.502.015v-.76c.43 0 .77-.02 1.018-.058.25-.038.436-.086.56-.143.124-.067.22-.134.287-.2h.516c.01.095.02.21.029.343.019.134.028.268.028.402a3.378 3.378 0 011.019-.617 3.097 3.097 0 011.118-.215 2.81 2.81 0 011.535.445c.469.287.842.698 1.119 1.233.277.536.416 1.172.416 1.908 0 .793-.163 1.496-.488 2.108a3.68 3.68 0 01-1.32 1.434 3.412 3.412 0 01-1.82.502c-.307 0-.589-.038-.847-.114a3.232 3.232 0 01-.732-.287v2.05c0 .173-.004.345-.014.517 0 .182-.01.363-.029.545l.46-.029c.162 0 .31-.004.444-.014v.76H62.71zm3.815-4.174c.45 0 .822-.133 1.118-.401.306-.277.536-.645.689-1.105.153-.468.23-.994.23-1.577 0-.488-.068-.951-.201-1.391-.134-.45-.35-.813-.646-1.09-.287-.287-.664-.426-1.133-.416-.306 0-.593.071-.86.215a2.15 2.15 0 00-.66.53v.531c.01.191.014.45.014.775s-.005.765-.014 1.32v2.15c.191.144.41.259.66.345.258.086.525.124.803.114zm4.9.517v-.602c.316 0 .536-.087.66-.259.134-.172.2-.454.2-.846v-4.202c.01-.182.025-.364.044-.545-.144.01-.297.019-.46.028-.162 0-.31.005-.444.015v-.76h3.213v.602c-.287 0-.493.062-.617.186a.869.869 0 00-.215.474c-.02.19-.029.392-.029.602l.015 1.09.702-.029c.804-.019 1.43.063 1.88.244.449.182.764.435.946.76.191.325.287.684.287 1.076 0 .478-.11.88-.33 1.205-.22.315-.512.554-.875.717a2.88 2.88 0 01-1.19.244h-3.787zm6.727 0v-.602c.277 0 .473-.068.588-.201.124-.134.196-.32.215-.56.029-.239.048-.516.057-.832V31.08a10.521 10.521 0 01.057-1.061c-.152.01-.31.019-.473.028-.153 0-.296.005-.43.015v-.76h3.199v.602c-.278 0-.478.067-.603.2-.115.135-.186.321-.215.56-.02.24-.029.516-.029.832l-.014 3.198a10.163 10.163 0 01-.057 1.062c.143-.01.296-.015.459-.015l.444-.028v.76h-3.198zm-4.418-.717c.172 0 .335.005.488.014.163 0 .33-.005.502-.014.382 0 .707-.11.975-.33.278-.23.416-.588.416-1.076.01-.468-.12-.827-.387-1.075-.258-.259-.607-.388-1.047-.388-.2 0-.363.005-.488.014-.124 0-.263.005-.416.015v2.022a7.105 7.105 0 01-.043.818z" fill="#F6EBD1"/><path d="M140 32.887H84.223" stroke="#F6EBD1"/></svg>